# xmcd
#
# Track frame offsets:
#       150
#       14816
#       28251
#       43212
#       58038
#       69484
#       88169
#       102988
#       121284
#       136642
#       149816
#       167530
#       182749
#       195328
#       210811
#       225390
#
# Disc length: 3158 seconds
#
# Revision: 0
# Processed by: cddbd v1.4PL0 Copyright (c) Steve Scherf et al.
# Submitted via: WhereIsIt 3.22
#
DISCID=e00c5410
DTITLE=Jessie Thomas - Lookin' for That Woman
DYEAR=1900
DGENRE=
TTITLE0=Blue Goose Blues
TTITLE1=Behind Closed Doors
TTITLE2=Lookin' for That Woman
TTITLE3=Jack of Diamonds
TTITLE4=Boogie Woogie
TTITLE5=Zetetter Blues
TTITLE6=Guess I'll Walk Alone
TTITLE7=Blues Is a Feelin'
TTITLE8=Merry Christmas
TTITLE9=Your Ways and Actions
TTITLE10=Gumbo
TTITLE11=Bessie Lavon
TTITLE12=All That Stuff
TTITLE13=Another Friend Like Me
TTITLE14=Call Me
TTITLE15=Blue Goose Blues
EXTD=
EXTT0=
EXTT1=
EXTT2=
EXTT3=
EXTT4=
EXTT5=
EXTT6=
EXTT7=
EXTT8=
EXTT9=
EXTT10=
EXTT11=
EXTT12=
EXTT13=
EXTT14=
EXTT15=
PLAYORDER=
